PathFileType	4	(X/Y/Z)	/Users/itak/Documents/Research/Walk-IL/dataset/trc/00514_00183.trc
DataRate	CameraRate	NumFrames	NumMarkers	Units	OrigDataRate	OrigDataStartFrame	OrigNumFrames
100.000000	100.000000	4	53	mm	100.000000	422	483
Frame#	Time	RPSI			LPSI			L3			STRN			T10			C7			CLAV			RBAK			LBAK			LSHO			LUPA			LAEL			LAOL			LWTS			LWPS			LFRA			LHPS			LHTS			RSHO			RUPA			RAEL			RAOL			RWTS			RWPS			RFRA			RIFD			RHTS			RHPS			RBHD			LFHD			RFHD			LBHD			LHIP			RHIP			RASI			LASI			LKNE			LTHI			LANK			LTIP			LTOE			LMT1			LMT5			LHEE			RKNE			RTHI			RANK			RTIP			RTOE			RMT1			RMT5			RHEE			LIFD			
		X1	Y1	Z1	X2	Y2	Z2	X3	Y3	Z3	X4	Y4	Z4	X5	Y5	Z5	X6	Y6	Z6	X7	Y7	Z7	X8	Y8	Z8	X9	Y9	Z9	X10	Y10	Z10	X11	Y11	Z11	X12	Y12	Z12	X13	Y13	Z13	X14	Y14	Z14	X15	Y15	Z15	X16	Y16	Z16	X17	Y17	Z17	X18	Y18	Z18	X19	Y19	Z19	X20	Y20	Z20	X21	Y21	Z21	X22	Y22	Z22	X23	Y23	Z23	X24	Y24	Z24	X25	Y25	Z25	X26	Y26	Z26	X27	Y27	Z27	X28	Y28	Z28	X29	Y29	Z29	X30	Y30	Z30	X31	Y31	Z31	X32	Y32	Z32	X33	Y33	Z33	X34	Y34	Z34	X35	Y35	Z35	X36	Y36	Z36	X37	Y37	Z37	X38	Y38	Z38	X39	Y39	Z39	X40	Y40	Z40	X41	Y41	Z41	X42	Y42	Z42	X43	Y43	Z43	X44	Y44	Z44	X45	Y45	Z45	X46	Y46	Z46	X47	Y47	Z47	X48	Y48	Z48	X49	Y49	Z49	X50	Y50	Z50	X51	Y51	Z51	X52	Y52	Z52	X53	Y53	Z53	

423	4.22	958.8893432617188	957.4818115234375	656.9431762695312	1082.875244140625	956.2720336914062	658.5054931640625	1022.601928710938	1026.658935546875	649.7266845703125	1040.451293945312	1198.214721679688	861.8552856445312	1017.079956054688	1130.22314453125	634.3680419921875	1018.551147460938	1361.354614257812	670.7166137695312	1037.548828125	1291.940551757812	823.2389526367188	928.3893432617188	1239.7626953125	634.248046875	1101.941528320312	1304.696533203125	635.9239501953125	1185.154663085938	1355.771850585938	718.1719970703125	1245.727661132812	1230.22119140625	704.5307006835938	1284.640380859375	1023.11572265625	725.3720703125	1203.419311523438	1006.256164550781	669.1690673828125	1273.500854492188	844.0009155273438	834.0018310546875	1296.855834960938	800.3784790039062	753.3822631835938	1294.364379882812	939.4107055664062	748.8048706054688	1302.900390625	751.1788330078125	783.9829711914062	1300.02783203125	769.9901733398438	846.708984375	877.31640625	1359.1826171875	739.707763671875	820.164794921875	1291.730712890625	727.508056640625	775.6692504882812	1025.159545898438	722.7159423828125	815.6101684570312	1009.020202636719	673.3602905273438	804.8317260742188	817.488037109375	814.6809692382812	760.6790161132812	796.6666870117188	738.37060546875	770.611328125	969.9811401367188	723.0640258789062	795.6341552734375	656.1069946289062	808.4327392578125	778.6063842773438	726.2738647460938	825.0391235351562	756.8651123046875	727.3652954101562	757.5238037109375	923.641357421875	1507.966674804688	760.5780029296875	1104.523803710938	1592.440795898438	786.600830078125	995.6431274414062	1583.03125	851.7142944335938	1054.573486328125	1513.808715820312	666.2603149414062	1212.81689453125	885.9364624023438	768.2711791992188	833.2786865234375	862.3924560546875	765.2117919921875	899.9854736328125	911.1058959960938	862.55126953125	1141.880859375	924.0302734375	859.5760498046875	1152.24365234375	468.87939453125	797.7158813476562	1184.391357421875	624.9193115234375	805.7557983398438	1128.63623046875	41.18366622924805	691.1727905273438	1148.6806640625	317.9812316894531	766.740478515625	1064.405395507812	27.34317398071289	887.7503051757812	1033.83056640625	29.81069183349609	806.911376953125	1136.102172851562	33.98949432373047	800.4984130859375	1069.39892578125	37.23789215087891	642.1685180664062	875.9580078125	474.7914428710938	788.29833984375	838.6835327148438	738.8744506835938	803.3147583007812	894.5235595703125	43.73165130615234	697.750244140625	892.4285278320312	329.0718688964844	784.8663330078125	946.1669311523438	33.30659103393555	896.0383911132812	979.9755249023438	37.55215454101562	827.3030395507812	884.6400756835938	39.72014236450195	811.2614135742188	938.916748046875	35.7681770324707	643.3175048828125	1277.270263671875	689.4275512695312	857.0103759765625	
424	4.23	958.5490112304688	957.3164672851562	658.064453125	1082.666381835938	956.1097412109375	659.3784790039062	1022.202087402344	1026.3173828125	650.619140625	1040.284790039062	1198.04248046875	862.8517456054688	1016.720703125	1130.002563476562	635.1516723632812	1018.528259277344	1361.120239257812	671.6348876953125	1037.492309570312	1291.755004882812	824.1822509765625	928.1710815429688	1239.617919921875	635.3059692382812	1101.847534179688	1304.2841796875	636.8834838867188	1185.158569335938	1355.26318359375	718.9918212890625	1245.315551757812	1229.5537109375	704.937744140625	1283.35791015625	1022.180847167969	724.7593994140625	1201.795288085938	1005.9541015625	668.8920288085938	1271.860595703125	842.3361206054688	832.4359741210938	1294.719970703125	799.1278686523438	751.4537963867188	1292.83251953125	938.2718505859375	747.730712890625	1300.552734375	749.6714477539062	781.6953125	1298.02392578125	768.0825805664062	844.5643310546875	877.3992309570312	1359.24755859375	740.6723022460938	820.078857421875	1291.926513671875	728.61474609375	775.1322021484375	1025.378051757812	724.6813354492188	814.7468872070312	1009.090209960938	675.171875	804.684326171875	817.9512329101562	817.0430908203125	759.8652954101562	796.8765258789062	741.1456298828125	769.775634765625	970.1515502929688	725.2384033203125	795.1239624023438	656.33740234375	811.1876831054688	778.324462890625	726.7078247070312	827.8426513671875	756.1517944335938	727.627197265625	760.6134033203125	923.9017944335938	1507.8662109375	761.3729858398438	1104.889892578125	1592.19140625	787.2791137695312	996.0187377929688	1582.925415039062	852.4969482421875	1054.830932617188	1513.5400390625	667.0224609375	1212.2734375	885.742431640625	769.692626953125	832.89990234375	862.2313232421875	766.1781616210938	899.30859375	910.9092407226562	863.5801391601562	1141.192993164062	923.82470703125	861.0089111328125	1151.724731445312	468.7495727539062	798.4891357421875	1183.765502929688	624.768798828125	806.8818969726562	1128.530395507812	41.2243766784668	691.1409301757812	1148.269775390625	317.9371948242188	767.1824951171875	1064.36962890625	27.34797477722168	887.7493896484375	1033.6650390625	29.73236083984375	806.93310546875	1135.9755859375	34.08243560791016	800.4517211914062	1069.282958984375	37.30868530273438	642.0770263671875	875.2877197265625	474.5000610351562	788.2793579101562	839.2987060546875	740.6778564453125	806.0621948242188	894.5003051757812	43.45649719238281	697.639404296875	892.1380004882812	328.8053283691406	784.6356811523438	946.1527709960938	33.27373123168945	896.012451171875	979.9302978515625	37.56093978881836	827.2701416015625	884.6065673828125	39.64962768554688	811.2127075195312	938.8780517578125	35.36581420898438	643.298095703125	1274.876953125	687.568603515625	854.3896484375	
425	4.24	958.164306640625	957.1304931640625	659.1083984375	1082.442626953125	955.9650268554688	660.1754150390625	1021.784790039062	1025.974853515625	651.4760131835938	1040.09033203125	1197.854370117188	863.7888793945312	1016.364440917969	1129.746215820312	635.9280395507812	1018.495239257812	1360.881958007812	672.4935913085938	1037.395874023438	1291.55859375	825.0692138671875	927.9567260742188	1239.45654296875	636.2805786132812	1101.750732421875	1303.8740234375	637.7890014648438	1185.161254882812	1354.747314453125	719.7859497070312	1244.914672851562	1228.880493164062	705.3689575195312	1282.067993164062	1021.24658203125	724.2044067382812	1200.210327148438	1005.659484863281	668.61474609375	1270.09033203125	840.6093139648438	830.8170166015625	1292.529296875	797.8565063476562	749.4827270507812	1291.26611328125	937.1235961914062	746.6971435546875	1298.095458984375	748.13037109375	779.3457641601562	1295.833862304688	766.1021728515625	842.357177734375	877.45947265625	1359.285034179688	741.5639038085938	819.987548828125	1292.11279296875	729.6338500976562	774.5272216796875	1025.592651367188	726.6348266601562	813.7918701171875	1009.140808105469	676.9236450195312	804.592529296875	818.4165649414062	819.3781127929688	758.961669921875	797.0693359375	743.9697265625	768.8319091796875	970.3139038085938	727.4293823242188	795.0250854492188	657.0947875976562	814.5076293945312	778.1198120117188	727.1607666015625	830.694091796875	755.388427734375	727.868408203125	763.7769165039062	924.1295166015625	1507.729614257812	762.0775146484375	1105.179321289062	1591.955444335938	787.9261474609375	996.2607421875	1582.81201171875	853.17578125	1055.072387695312	1513.24853515625	667.7636108398438	1211.737182617188	885.5753173828125	771.0979614257812	832.4573974609375	862.0479736328125	767.1239624023438	898.6173706054688	910.723876953125	864.5408325195312	1140.51953125	923.6168823242188	862.36181640625	1151.233642578125	468.6191101074219	799.1759643554688	1183.173461914062	624.6152954101562	807.8737182617188	1128.4208984375	41.25799942016602	691.1052856445312	1147.869506835938	317.8976745605469	767.5765991210938	1064.345458984375	27.35499954223633	887.7481079101562	1033.51220703125	29.66877174377441	806.9533081054688	1135.84814453125	34.17496109008789	800.41064453125	1069.191162109375	37.35330581665039	641.9851684570312	874.630615234375	474.2120666503906	788.2877197265625	840.06982421875	742.6798095703125	809.0015869140625	894.4947509765625	43.22125625610352	697.5415649414062	891.8536987304688	328.5552062988281	784.4285888671875	946.1428833007812	33.24156188964844	895.9931640625	979.8927001953125	37.56174087524414	827.24267578125	884.5812377929688	39.58789443969727	811.1717529296875	938.8545532226562	35.01383972167969	643.2959594726562	1272.271118164062	685.6493530273438	851.6488647460938	
426	4.25	957.73046875	956.93408203125	660.075927734375	1082.176635742188	955.8460693359375	660.9751586914062	1021.358032226562	1025.639282226562	652.2959594726562	1039.853515625	1197.666748046875	864.6636962890625	1016.013305664062	1129.460693359375	636.7069091796875	1018.457153320312	1360.641967773438	673.282470703125	1037.26220703125	1291.364379882812	825.8938598632812	927.7417602539062	1239.288818359375	637.1704711914062	1101.648071289062	1303.470336914062	638.63134765625	1185.170166015625	1354.228515625	720.5451049804688	1244.524536132812	1228.202270507812	705.814208984375	1280.770874023438	1020.316833496094	723.7178955078125	1198.6630859375	1005.369995117188	668.3474731445312	1268.1943359375	838.8289184570312	829.164794921875	1290.293090820312	796.5755004882812	747.48681640625	1289.669189453125	935.9735717773438	745.72021484375	1295.548217773438	746.5706787109375	776.9478149414062	1293.469116210938	764.0590209960938	840.1018676757812	877.4886474609375	1359.30615234375	742.3807983398438	819.8796997070312	1292.29052734375	730.56640625	773.872314453125	1025.806518554688	728.5702514648438	812.7710571289062	1009.171691894531	678.6207275390625	804.54248046875	818.8754272460938	821.6732177734375	757.9915161132812	797.25390625	746.8099975585938	767.8145141601562	970.4763793945312	729.6277465820312	795.2528076171875	658.2866821289062	818.2591552734375	777.9900512695312	727.64453125	833.590576171875	754.5880126953125	728.1029052734375	766.9642333984375	924.3203125	1507.568969726562	762.6907348632812	1105.395385742188	1591.73291015625	788.553466796875	996.3743286132812	1582.691650390625	853.7560424804688	1055.292114257812	1512.945068359375	668.4802856445312	1211.209228515625	885.4402465820312	772.4815063476562	831.944580078125	861.84765625	768.0369873046875	897.9130249023438	910.5563354492188	865.4382934570312	1139.861694335938	923.4137573242188	863.6362915039062	1150.774536132812	468.486572265625	799.7828369140625	1182.628784179688	624.4627075195312	808.7504272460938	1128.307861328125	41.2869873046875	691.0708618164062	1147.495971679688	317.8718872070312	767.9198608398438	1064.332397460938	27.36330413818359	887.7464599609375	1033.373901367188	29.6170711517334	806.97119140625	1135.720458984375	34.26237869262695	800.3745727539062	1069.120483398438	37.37581253051758	641.8995361328125	874.0036010742188	473.9386596679688	788.3019409179688	840.8226318359375	744.641357421875	811.8748168945312	894.5086669921875	43.02900314331055	697.4584350585938	891.5770874023438	328.3306579589844	784.243896484375	946.1383666992188	33.21039581298828	895.980224609375	979.87109375	37.5567626953125	827.2220458984375	884.5657348632812	39.5377311706543	811.1400146484375	938.8523559570312	34.72245025634766	643.3048706054688	1269.465576171875	683.6769409179688	848.793212890625	
